<svg xmlns="http://www.w3.org/2000/svg" viewBox="0 0 354.41 464.62"><defs><style>.cls-1{fill:#fcce06;}.cls-2{fill:#fff;}.cls-3{fill:#29aae1;}.cls-4{fill:#25a9e0;}.cls-5{fill:#fccf07;}.cls-6{fill:#28abe2;}</style></defs><title>logo final ahhh</title><g id="Layer_2" data-name="Layer 2"><g id="Layer_1-2" data-name="Layer 1"><polyline class="cls-1" points="41.51 192.68 198.51 103.32 354.41 194.61 353.3 375.26 196.29 464.62 40.4 373.33"/><polygon class="cls-1" points="343.49 369.68 196.88 453.13 51.31 367.88 52.35 199.19 198.96 115.74 344.53 200.99 343.49 369.68"/><polygon class="cls-2" points="263.45 357.31 196.11 320.27 194.51 243.43 260.25 203.63 327.6 240.67 329.2 317.51 263.45 357.31"/><path class="cls-2" d="M71.69,262.6v16h9.86v-16H90V304.5H81.54V285.9H71.69v18.6H63.24V262.6Z"/><path class="cls-2" d="M114.46,262.6l11.09,41.89h-8.8l-1.94-8.86H103.66l-1.94,8.86h-8.8L104,262.6Zm-1.11,26.11-4-18.83h-.12l-4,18.83Z"/><path class="cls-2" d="M145.29,270.08a4.06,4.06,0,0,0-4-2.08,4,4,0,0,0-2.61.85,5.65,5.65,0,0,0-1.61,2.76,23.5,23.5,0,0,0-.82,5q-.23,3.08-.23,7.54a73,73,0,0,0,.32,7.69,17,17,0,0,0,1,4.55,4.16,4.16,0,0,0,1.7,2.17,4.9,4.9,0,0,0,2.38.56,5.62,5.62,0,0,0,2.08-.38,3.53,3.53,0,0,0,1.67-1.53,9.93,9.93,0,0,0,1.12-3.23,29.55,29.55,0,0,0,.41-5.49h8.45a37.76,37.76,0,0,1-.53,6.45,14.6,14.6,0,0,1-2,5.34,9.77,9.77,0,0,1-4,3.58,15.34,15.34,0,0,1-6.78,1.29,15.94,15.94,0,0,1-7.57-1.53,10.28,10.28,0,0,1-4.31-4.4,19.37,19.37,0,0,1-1.94-6.87,87.87,87.87,0,0,1,0-17.57,19.43,19.43,0,0,1,1.94-6.89,10.84,10.84,0,0,1,4.31-4.49,15.21,15.21,0,0,1,7.57-1.61,14.61,14.61,0,0,1,7.13,1.47,10,10,0,0,1,3.9,3.73,12.91,12.91,0,0,1,1.61,4.87,40.14,40.14,0,0,1,.32,4.9h-8.45Q146.38,272.16,145.29,270.08Z"/><path class="cls-2" d="M168.44,279.38h.12l10.68-16.78h9.15l-11.38,18,12.67,23.94h-9.51l-8.62-17.19-3.11,4.75V304.5H160V262.6h8.45Z"/><path class="cls-3" d="M237.67,254l6.5,16.33L250.61,254h11.1L250,279l12.58,25.52H251.1l-7.28-17.11-7.21,17.11H225.44L238,279l-11.59-25Z"/><path class="cls-3" d="M283.69,254a18.2,18.2,0,0,1,8.55,1.73,12.33,12.33,0,0,1,5.05,4.95,22,22,0,0,1,2.44,7.74,72.93,72.93,0,0,1,.64,10.11,71.72,71.72,0,0,1-.81,11.56,22.07,22.07,0,0,1-2.79,8.09,12.25,12.25,0,0,1-5.3,4.74,19.85,19.85,0,0,1-8.41,1.56H267V254Zm-2,43a8.75,8.75,0,0,0,4.31-.92,6.3,6.3,0,0,0,2.58-3,17.77,17.77,0,0,0,1.27-5.58q.32-3.46.32-8.62,0-4.31-.28-7.56a18.69,18.69,0,0,0-1.17-5.41,6.75,6.75,0,0,0-2.62-3.25,8.59,8.59,0,0,0-4.63-1.1h-4.31V297Z"/><rect class="cls-4" x="90.82" y="144.25" width="35.53" height="35.53"/><rect class="cls-4" x="116.23" y="87.99" width="35.53" height="35.53"/><rect class="cls-2" x="61.71" y="126.48" width="35.53" height="35.53"/><path class="cls-5" d="M99.24,164H59.71V124.48H99.24Zm-35.53-4H95.24V128.48H63.71Z"/><rect class="cls-2" x="73.06" y="53.75" width="35.53" height="35.53"/><path class="cls-5" d="M110.59,91.28H71.06V51.75h39.53Zm-35.53-4h31.53V55.75H75.06Z"/><rect class="cls-4" x="26.18" y="171.59" width="35.53" height="35.53"/><rect class="cls-2" x="108.59" y="7.2" width="35.53" height="35.53"/><path class="cls-5" d="M146.12,44.73H106.59V5.2h39.53Zm-35.53-4h31.53V9.2H110.59Z"/><rect class="cls-4" x="55.29" y="29.94" width="35.53" height="35.53"/><rect class="cls-4" x="180.16" y="87.99" width="35.53" height="35.53"/><rect class="cls-2" x="11.3" y="87.99" width="35.53" height="35.53"/><path class="cls-5" d="M48.83,125.52H9.3V86H48.83Zm-35.53-4H44.83V90H13.3Z"/><rect class="cls-2" x="2" y="2" width="35.53" height="35.53"/><path class="cls-5" d="M39.53,39.53H0V0H39.53ZM4,35.53H35.53V4H4Z"/><rect class="cls-2" x="159.13" y="107.63" width="35.53" height="35.53"/><path class="cls-5" d="M196.66,145.16H157.13V105.63h39.53Zm-35.53-4h31.53V109.63H161.13Z"/><rect class="cls-3" x="165.66" y="177.19" width="35.53" height="35.53"/><rect class="cls-6" x="108.59" y="207.12" width="35.53" height="35.53"/></g></g></svg>